<?xml version="1.0" encoding="UTF-8"?>
<svg id="Layer_1" data-name="Layer 1" xmlns="http://www.w3.org/2000/svg" viewBox="0 0 377.23 142.88">
  <defs>
    <style>
      .cls-1 {
        fill: #fff;
      }

      .cls-1, .cls-2 {
        stroke-width: 0px;
      }

      .cls-2 {
        fill: #1a322f;
      }
    </style>
  </defs>
  <g>
    <path class="cls-1" d="m53.09,142.88c-9.77,0-19.38-2.56-28.56-7.62C10.13,127.33,1.72,114.12.22,97.04c-1.09-12.42,1.98-23.53,9.14-33.03,1.62-2.16,3.4-3.92,5.3-5.28-.61-1.76-1.21-3.55-1.76-5.36-.69-2.27-.85-4.51-.92-6.58l-.03-.93c-.21-6.09-.42-12.38-.43-18.63,0-3.01.88-5.73,1.64-7.76,1.73-4.59,5.67-7.33,10.54-7.33.62,0,1.26.04,1.92.13,4.23.56,8.15,1.98,11.69,4.24,2.94-1.04,6.18-2.16,9.55-3.26,1.03-2.37,2.14-4.68,3.62-6.95,3.38-5.19,7.54-6.28,10.43-6.28,2.4,0,4.81.73,7.37,2.23,5.71,3.36,10.48,8.17,15.01,15.15,4.44,6.86,7.11,12.93,8.39,19.12.84,4.08.97,8.22.38,12.34,10.07,9.21,15.9,20.73,17.33,34.27,2.54,23.99-8.83,44.14-30.42,53.9-8.61,3.89-17.31,5.86-25.87,5.86Zm-13.83-33.98c1.4,1.45,3.07,2.65,5.02,3.61,1.62.8,3.58,1.4,5.66,2.04,1.17.36,2.34.72,3.49,1.12.66.23,1.3.49,1.95.75l.64.26,6.02,2.39-1.66,5.33c3.45-.63,6.96-1.7,10.5-3.2,19.66-8.34,23.19-26.98,20.24-40.42-1.81-8.23-6.17-15.05-13.34-20.86-3.39-2.75-4.71-6.59-3.71-10.81.74-3.11.8-5.87.21-8.42-1.79-7.7-5.56-14.42-11.21-20-.31.67-.59,1.34-.85,2.01-1.29,3.29-3.48,5.39-6.7,6.43-5.73,1.85-10.9,3.62-15.8,5.41-1.3.48-2.53.71-3.75.71-2.3,0-4.44-.82-6.37-2.43-.09-.08-.19-.16-.29-.23.09,4.83.2,9.79.58,14.57.48,6.1,2.97,10.88,7.6,14.57,4.61-1.88,9.61-3.15,14.88-3.77,2.45-.29,4.87-.44,7.2-.44,4.27,0,8.44.5,12.37,1.48,5.61,1.37,7.34,5.93,6.61,9.6-.77,3.91-3.98,6.54-7.99,6.54-.62,0-1.14-.06-1.48-.1-3.39-.39-6.31-.58-8.99-.58-1.8,0-3.5.08-5.13.25,12.57.81,22.43,10.9,22.75,23.64.03,1.17-.16,2.15-.28,2.73l-.05.24-.94,5.79-5.87.17-5.54.09-2.19-6.06c-.22-.61-.43-1.22-.63-1.83-.35-1.05-.69-2.05-1.06-2.83-1.41-2.99-4.1-4.77-7.19-4.77-.41,0-.83.03-1.24.1-1.23.19-2.55.72-3.95,3.33-.24.45-.5,1.14-.77,1.87-.3.8-.64,1.72-1.09,2.67-.74,1.58-1.8,2.61-2.37,3.17l-.17.17-5.1,5.72Z"/>
    <path class="cls-1" d="m23.37,62.45c-1.3-3.79-2.65-7.42-3.77-11.12-.46-1.52-.57-3.18-.62-4.78-.22-6.44-.45-12.89-.45-19.33,0-1.76.56-3.6,1.19-5.28.87-2.3,2.56-3.06,4.99-2.74,3.91.52,7.43,1.99,10.53,4.39.85.66,1.48.56,2.38.23,4.3-1.53,8.62-3.04,12.97-4.43,1.1-.35,1.62-.85,2.08-1.92,1.07-2.52,2.19-5.07,3.68-7.36,2.27-3.49,4.8-3.94,8.39-1.83,5.38,3.16,9.34,7.78,12.68,12.93,3.35,5.17,6.15,10.62,7.41,16.73.85,4.14.79,8.28-.15,12.39-.21.92-.02,1.39.67,1.96,9.91,8.24,15.74,18.85,17.09,31.58,2.12,20.04-6.85,37.97-26.35,46.78-16.19,7.31-32.49,7.12-48.17-1.51-12.75-7.02-19.44-18.25-20.72-32.71-.91-10.35,1.45-19.84,7.76-28.21,2.22-2.94,4.95-5.18,8.43-5.76Zm30.07,60.74c-.06.2-.13.41-.19.61-.61.03-1.22.1-1.82.09-9.31-.14-16.66-4.27-21.72-11.84-6.84-10.23-7.81-21.13-2.18-32.38,1.13-2.25,2.12-4.66,2.65-7.11.92-4.2-2.95-7.42-7.06-6.11-2.24.72-3.81,2.31-5.18,4.11-5.64,7.45-7.69,15.92-7.01,25.13.96,12.93,6.7,23.17,17.98,29.69,14.4,8.33,29.49,8.71,44.68,2.27,21.13-8.96,28.48-29.55,24.34-48.37-2.23-10.17-7.75-18.3-15.77-24.79-1.31-1.06-1.7-2.1-1.31-3.77.91-3.83,1.12-7.74.22-11.61-2.14-9.21-6.65-17.13-13.41-23.7-1.61-1.56-3.71-2.62-5.6-3.9-1.09-.73-2.05-.43-2.61.65-1.34,2.62-2.71,5.25-3.78,7.98-.49,1.25-1.03,1.9-2.33,2.32-5.38,1.73-10.74,3.55-16.05,5.5-1.32.48-2.16.37-3.21-.51-2.64-2.21-5.71-3.57-9.09-4.24-1.19-.24-1.95.07-2.13,1.31-.25,1.69-.66,3.4-.63,5.1.12,6.03.18,12.07.65,18.07.64,8.11,4.12,14.82,10.68,19.85,1.88,1.44,3.72,1.85,5.92.91,4.38-1.87,8.96-3,13.69-3.56,5.73-.68,11.43-.52,17.05.89.73.18,1.66.34,1.44,1.45-.21,1.07-1.05.94-1.86.84-6.86-.79-13.71-1-20.51.43-4.59.97-9.11,2.21-13.07,4.87-2.07,1.39-3.74,3.16-4.39,5.67-.67,2.57.5,4.69,3.07,5.44,2.23.65,4.47.45,6.57-.43,3.21-1.34,6.54-1.98,9.98-2.31,10.32-1.01,18.98,6.51,19.24,16.78.01.58-.16,1.17-.25,1.76-.18,0-.36,0-.54,0-.17-.46-.33-.92-.5-1.38-.64-1.76-1.14-3.57-1.94-5.25-2.94-6.22-9.22-9.61-15.82-8.6-4.27.65-7.11,3.29-9.06,6.94-.83,1.54-1.28,3.28-2.03,4.87-.29.62-.92,1.08-1.4,1.61-.43-.51-.93-.98-1.28-1.54-.24-.38-.24-.9-.41-1.33-1.16-2.9-2.21-5.88-4.81-7.89-2.22-1.71-4.47-1.02-5.43,1.61-.18.48-.37,1.01-.35,1.51.07,2.85-.12,5.75.38,8.52,1.55,8.61,5.9,15.46,13.9,19.41,3.13,1.55,6.63,2.35,9.96,3.5.78.27,1.53.6,2.3.91Z"/>
    <path class="cls-1" d="m46.39,66.74c-2.15,0-4.35-.61-6.37-1.77-2.63-1.51-3.47-3.97-3.82-5.02l-.03-.08-3.45-7.33,6.68-1.87c-.37-3.83,2.2-7.52,5.08-8.94,2.04-1,4.31-1.71,6.57-2.06.4-.06.82-.09,1.24-.09,2.92,0,6.43,1.57,8.07,4.58.36-.04.71-.06,1.05-.06,2.27,0,3.87.87,4.82,1.59,3.04,2.34,4.48,7.57,1.67,11.33-1.15,1.53-2.61,3.26-4.74,4.47-2.21,1.25-4.66,1.9-7.1,1.9-.47,0-.93-.02-1.4-.07-.67.57-1.4,1.15-2.24,1.67-1.81,1.14-3.9,1.74-6.04,1.74Z"/>
    <path class="cls-1" d="m52.77,55.56c-1.51,1.34-2.66,2.63-4.06,3.51-1.65,1.04-3.55.78-5.2-.17-.5-.29-.63-1.22-.93-1.85.63-.18,1.32-.61,1.88-.49,3.38.75,5.46-.77,5.49-4.3-.56-.11-1.25-.07-1.72-.38-.73-.48-1.68-1.1-1.85-1.82-.14-.58.56-1.75,1.19-2.05,1.41-.69,2.98-1.18,4.54-1.42.69-.1,1.95.44,2.14.98.25.7-.22,1.72-.54,2.54-.23.61-1.09,1.52-1,1.61.63.62,1.39,1.27,2.22,1.53,1.64.52,3.17.05,4.45-1.13.3-.28.56-.72.92-.82.54-.16,1.32-.33,1.66-.07.34.27.57,1.28.34,1.59-.72.97-1.55,1.99-2.58,2.57-2.36,1.33-4.86,1.29-6.95.16Z"/>
    <path class="cls-1" d="m33.03,58.98l-.18-.04c-.9-.21-2.57-.61-4.22-1.68-2.9-1.87-5.05-6.21-3.6-10.23,1.33-3.68,5.28-5.67,8.32-5.67.47,0,.94.04,1.39.13,1.68-1.6,3.84-2.5,6.03-2.5,2.54,0,4.88,1.17,6.43,3.22,1.86,2.45,2.72,6.69.77,10.06-2.54,4.37-6.78,6.72-12.59,7.01l-1.25.06-1.1-.35Z"/>
    <path class="cls-1" d="m35.03,52.27c-.59-.18-1.73-.33-2.6-.89-.52-.34-1-1.46-.81-1.98.19-.52,1.31-1.14,1.88-1.02,2.35.49,4.32.08,5.96-1.71.65-.71,1.59-.99,2.16-.23.42.55.61,1.75.29,2.3-1.39,2.39-3.68,3.38-6.89,3.54Z"/>
    <path class="cls-1" d="m59.11,51.15c-.15-.03-.3-.04-.45-.06-1.01-.12-2.7-.32-4.43-1.25-2.93-1.57-5.55-5.45-4.62-9.57.84-3.71,4.65-6.73,8.5-6.73h.49l.56.07c.1.01.18.02.25.03,1.49-1.52,3.6-2.36,5.95-2.36,1.31,0,3.82.27,5.86,2.09,2.92,2.6,3.64,7.51,1.61,10.94-2.51,4.24-6.82,6.71-12.14,6.95l-.79.04-.8-.15Z"/>
    <path class="cls-1" d="m60.38,44.27c-.96-.18-2.03-.16-2.85-.6-.57-.31-1.21-1.33-1.09-1.87.12-.55,1.2-1.34,1.75-1.26,2.46.34,4.47-.15,6.22-2,.36-.38,1.73-.32,2.16.06.41.37.55,1.62.24,2.15-1.41,2.38-3.67,3.4-6.43,3.52Z"/>
  </g>
  <g>
    <path class="cls-1" d="m147.58,111.37c-6.49,0-11.58-1.07-15.28-3.2-3.7-2.13-6.34-5.12-7.9-8.95-1.57-3.83-2.35-8.25-2.35-13.25v-.9c0-1.1,1.03-2,2.29-2h16.83v2.9c0,2.67.19,4.83.57,6.5.38,1.67,1.07,2.88,2.06,3.65.99.77,2.37,1.15,4.12,1.15s3.07-.4,3.95-1.2c.88-.8,1.47-2,1.77-3.6.3-1.6.46-3.6.46-6,0-4-.63-7.05-1.89-9.15-1.26-2.1-3.87-3.18-7.84-3.25h-1.26c-1.26,0-2.29-.9-2.29-2v-9.5h3.09c4.04,0,6.75-.97,8.13-2.9,1.37-1.93,2.06-4.93,2.06-9,0-3.13-.48-5.53-1.43-7.2-.95-1.67-2.73-2.5-5.32-2.5s-4.18.93-4.98,2.8c-.8,1.87-1.2,4.27-1.2,7.2v2.2c0,1.1-1.03,2-2.29,2h-14.54c-1.26,0-2.29-.9-2.29-2v-2.9c0-4.87,1.01-8.98,3.03-12.35,2.02-3.37,4.92-5.92,8.7-7.65,3.78-1.73,8.3-2.6,13.57-2.6s9.92.83,13.74,2.5c3.81,1.67,6.75,4.12,8.81,7.35,2.06,3.23,3.09,7.25,3.09,12.05s-1.11,8.7-3.32,11.9c-1.31,1.89-2.78,3.35-4.4,4.38-1.26.79-1.15,2.44.11,3.22.72.44,1.4.94,2.06,1.5,1.72,1.47,3.07,3.45,4.07,5.95.99,2.5,1.49,5.68,1.49,9.55,0,4.93-.82,9.3-2.46,13.1-1.64,3.8-4.33,6.78-8.07,8.95-3.74,2.17-8.7,3.25-14.88,3.25Z"/>
    <path class="cls-1" d="m189.46,108.11l-10.67-77c-.16-1.19.9-2.24,2.27-2.24h12.75c1.17,0,2.16.78,2.28,1.8l3.28,28.19c.28,2.36,4.2,2.41,4.55.05l4.18-28.2c.15-1,1.12-1.74,2.27-1.74h9.61c1.14,0,2.11.74,2.27,1.73l4.48,28.64c.37,2.34,4.26,2.29,4.55-.06l3.42-28.61c.12-1.02,1.1-1.79,2.28-1.79h12.53c1.37,0,2.44,1.05,2.27,2.24l-10.56,77c-.14,1.01-1.11,1.76-2.27,1.76h-13.84c-1.14,0-2.11-.73-2.27-1.72l-5.29-32.73c-.37-2.3-4.19-2.29-4.54.02l-4.98,32.69c-.15.99-1.12,1.74-2.27,1.74h-14.05c-1.16,0-2.13-.76-2.27-1.76Z"/>
    <path class="cls-1" d="m287.25,111.07c-7.02,0-12.58-1.12-16.66-3.35-4.08-2.23-6.97-5.37-8.64-9.4-1.68-4.03-2.52-8.78-2.52-14.25v-29.2c0-5.6.84-10.42,2.52-14.45,1.68-4.03,4.56-7.15,8.64-9.35,4.08-2.2,9.63-3.3,16.66-3.3s12.23.98,16.08,2.95c3.85,1.97,6.58,4.72,8.19,8.25,1.6,3.53,2.4,7.6,2.4,12.2v5c0,1.1-1.03,2-2.29,2h-15.46c-1.26,0-2.29-.9-2.29-2v-6.1c0-1.6-.1-3.13-.29-4.6-.19-1.47-.74-2.68-1.66-3.65-.92-.97-2.48-1.45-4.69-1.45s-3.72.5-4.75,1.5c-1.03,1-1.68,2.25-1.95,3.75-.27,1.5-.4,3.08-.4,4.75v38.1c0,1.8.17,3.45.52,4.95s1.03,2.7,2.06,3.6,2.54,1.35,4.52,1.35c2.14,0,3.66-.48,4.58-1.45.92-.97,1.49-2.22,1.72-3.75.23-1.53.34-3.1.34-4.7v-6.5c0-1.1,1.03-2,2.29-2h15.46c1.26,0,2.29.9,2.29,2v5c0,4.6-.78,8.72-2.35,12.35-1.57,3.63-4.28,6.5-8.13,8.6-3.85,2.1-9.25,3.15-16.2,3.15Z"/>
    <path class="cls-1" d="m350.55,111.07c-7.02,0-12.58-1.12-16.66-3.35-4.08-2.23-6.97-5.37-8.64-9.4-1.68-4.03-2.52-8.78-2.52-14.25v-29.2c0-5.6.84-10.42,2.52-14.45,1.68-4.03,4.56-7.15,8.64-9.35,4.08-2.2,9.63-3.3,16.66-3.3s12.23.98,16.08,2.95c3.85,1.97,6.58,4.72,8.19,8.25,1.6,3.53,2.4,7.6,2.4,12.2v5c0,1.1-1.03,2-2.29,2h-15.46c-1.26,0-2.29-.9-2.29-2v-6.1c0-1.6-.1-3.13-.29-4.6-.19-1.47-.74-2.68-1.66-3.65-.92-.97-2.48-1.45-4.69-1.45s-3.72.5-4.75,1.5c-1.03,1-1.68,2.25-1.95,3.75-.27,1.5-.4,3.08-.4,4.75v38.1c0,1.8.17,3.45.52,4.95s1.03,2.7,2.06,3.6,2.54,1.35,4.52,1.35c2.14,0,3.66-.48,4.58-1.45.92-.97,1.49-2.22,1.72-3.75.23-1.53.34-3.1.34-4.7v-6.5c0-1.1,1.03-2,2.29-2h15.46c1.26,0,2.29.9,2.29,2v5c0,4.6-.78,8.72-2.35,12.35-1.57,3.63-4.28,6.5-8.13,8.6-3.85,2.1-9.25,3.15-16.2,3.15Z"/>
  </g>
  <path class="cls-2" d="m58.17,11.4l-4.34,8.94-11.49,5.62-6.64.26-11.74-4.85s-1.53,2.55-2.04,3.32-1.02,10.72-1.02,10.72c0,0,.26,10.98.26,11.74s3.57,11.49,3.57,11.49l4.34,6.64-6.64,1.02s-6.64,5.11-7.4,5.87-5.36,14.55-5.36,14.55v8.68c0,2.3,2.3,13.02,2.81,13.79s4.85,9.96,6.64,10.72,17.11,10.98,17.11,10.98l19.91,3.83s23.49-6.38,24.26-7.4,10.47-10.72,12.77-12.26,8.17-16.09,8.17-16.09l-1.02-21.45-6.89-15.32-11.49-9.96,2.3-10.21-6.89-18.13-10.72-12-5.87-2.81-2.55,2.3Z"/>
  <path class="cls-1" d="m23.85,62.67c-1.3-3.79-2.65-7.42-3.77-11.12-.46-1.52-.57-3.18-.62-4.78-.22-6.44-.45-12.89-.45-19.33,0-1.76.56-3.6,1.19-5.28.87-2.3,2.56-3.06,4.99-2.74,3.91.52,7.43,1.99,10.53,4.39.85.66,1.48.56,2.38.23,4.3-1.53,8.62-3.04,12.97-4.43,1.1-.35,1.62-.85,2.08-1.92,1.07-2.52,2.19-5.07,3.68-7.36,2.27-3.49,4.8-3.94,8.39-1.83,5.38,3.16,9.34,7.78,12.68,12.93,3.35,5.17,6.15,10.62,7.41,16.73.85,4.14.79,8.28-.15,12.39-.21.92-.02,1.39.67,1.96,9.91,8.24,15.74,18.85,17.09,31.58,2.12,20.04-6.85,37.97-26.35,46.78-16.19,7.31-32.49,7.12-48.17-1.51-12.75-7.02-19.44-18.25-20.72-32.71-.91-10.35,1.45-19.84,7.76-28.21,2.22-2.94,4.95-5.18,8.43-5.76Zm30.07,60.74c-.06.2-.13.41-.19.61-.61.03-1.22.1-1.82.09-9.31-.14-16.66-4.27-21.72-11.84-6.84-10.23-7.81-21.13-2.18-32.38,1.13-2.25,2.12-4.66,2.65-7.11.92-4.2-2.95-7.42-7.06-6.11-2.24.72-3.81,2.31-5.18,4.11-5.64,7.45-7.69,15.92-7.01,25.13.96,12.93,6.7,23.17,17.98,29.69,14.4,8.33,29.49,8.71,44.68,2.27,21.13-8.96,28.48-29.55,24.34-48.37-2.23-10.17-7.75-18.3-15.77-24.79-1.31-1.06-1.7-2.1-1.31-3.77.91-3.83,1.12-7.74.22-11.61-2.14-9.21-6.65-17.13-13.41-23.7-1.61-1.56-3.71-2.62-5.6-3.9-1.09-.73-2.05-.43-2.61.65-1.34,2.62-2.71,5.25-3.78,7.98-.49,1.25-1.03,1.9-2.33,2.32-5.38,1.73-10.74,3.55-16.05,5.5-1.32.48-2.16.37-3.21-.51-2.64-2.21-5.71-3.57-9.09-4.24-1.19-.24-1.95.07-2.13,1.31-.25,1.69-.66,3.4-.63,5.1.12,6.03.18,12.07.65,18.07.64,8.11,4.12,14.82,10.68,19.85,1.88,1.44,3.72,1.85,5.92.91,4.38-1.87,8.96-3,13.69-3.56,5.73-.68,11.43-.52,17.05.89.73.18,1.66.34,1.44,1.45-.21,1.07-1.05.94-1.86.84-6.86-.79-13.71-1-20.51.43-4.59.97-9.11,2.21-13.07,4.87-2.07,1.39-3.74,3.16-4.39,5.67-.67,2.57.5,4.69,3.07,5.44,2.23.65,4.47.45,6.57-.43,3.21-1.34,6.54-1.98,9.98-2.31,10.32-1.01,18.98,6.51,19.24,16.78.01.58-.16,1.17-.25,1.76-.18,0-.36,0-.54,0-.17-.46-.33-.92-.5-1.38-.64-1.76-1.14-3.57-1.94-5.25-2.94-6.22-9.22-9.61-15.82-8.6-4.27.65-7.11,3.29-9.06,6.94-.83,1.54-1.28,3.28-2.03,4.87-.29.62-.92,1.08-1.4,1.61-.43-.51-.93-.98-1.28-1.54-.24-.38-.24-.9-.41-1.33-1.16-2.9-2.21-5.88-4.81-7.89-2.22-1.71-4.47-1.02-5.43,1.61-.18.48-.37,1.01-.35,1.51.07,2.85-.12,5.75.38,8.52,1.55,8.61,5.9,15.46,13.9,19.41,3.13,1.55,6.63,2.35,9.96,3.5.78.27,1.53.6,2.3.91Z"/>
  <path class="cls-1" d="m53.25,55.78c-1.51,1.34-2.66,2.63-4.06,3.51-1.65,1.04-3.55.78-5.2-.17-.5-.29-.63-1.22-.93-1.85.63-.18,1.32-.61,1.88-.49,3.38.75,5.46-.77,5.49-4.3-.56-.11-1.25-.07-1.72-.38-.73-.48-1.68-1.1-1.85-1.82-.14-.58.56-1.75,1.19-2.05,1.41-.69,2.98-1.18,4.54-1.42.69-.1,1.95.44,2.14.98.25.7-.22,1.72-.54,2.54-.23.61-1.09,1.52-1,1.61.63.62,1.39,1.27,2.22,1.53,1.64.52,3.17.05,4.45-1.13.3-.28.56-.72.92-.82.54-.16,1.32-.33,1.66-.07.34.27.57,1.28.34,1.59-.72.97-1.55,1.99-2.58,2.57-2.36,1.33-4.86,1.29-6.95.16Z"/>
  <path class="cls-1" d="m35.51,52.49c-.59-.18-1.73-.33-2.6-.89-.52-.34-1-1.46-.81-1.98.19-.52,1.31-1.14,1.88-1.02,2.35.49,4.32.08,5.96-1.71.65-.71,1.59-.99,2.16-.23.42.55.61,1.75.29,2.3-1.39,2.39-3.68,3.38-6.89,3.54Z"/>
  <path class="cls-1" d="m60.86,44.49c-.96-.18-2.03-.16-2.85-.6-.57-.31-1.21-1.33-1.09-1.87.12-.55,1.2-1.34,1.75-1.26,2.46.34,4.47-.15,6.22-2,.36-.38,1.73-.32,2.16.06.41.37.55,1.62.24,2.15-1.41,2.38-3.67,3.4-6.43,3.52Z"/>
</svg>